# xmcd
#
# Track frame offsets:
#  150
#  18272
#  27604
#  40938
#  61308
#  71272
#  84549
#  95276
#  106378
#  122783
#  138657
#  157959
#  180369
#  200146
#  216815
#
# Disc length: 3228 seconds
#
# Revision: 0
# Processed by: cddbd v1.4PL0 Copyright (c) Steve Scherf et al.
# Submitted via: AltoMP3_Maker 3.0
#
DISCID=cd0c9a0f
DTITLE=MEMPHIS SLIM - MEMPHIS SLIM-VOGUE-1969
DYEAR=1900
DGENRE=
TTITLE0=WE'VE BEEN TOGETHER TOO LONG
TTITLE1=SASSY MAE
TTITLE2=THE DRIVING WHEEL
TTITLE3=LIFE IS LIKE THAT
TTITLE4=ALL BY MYSELF
TTITLE5=NEXT TIME YOU SEE ME
TTITLE6=MISERY
TTITLE7=KANSAS CITY
TTITLE8=THE COMEBACK
TTITLE9=HCF BOOGIE
TTITLE10=THE BLUES IS EVERYWHERE
TTITLE11=BOOGI JAM
TTITLE12=THE SKIES ARE CRYING
TTITLE13=NINE BELOW ZERO
TTITLE14=FATTENING FROG FOR SNAKES
EXTD=
EXTT0=
EXTT1=
EXTT2=
EXTT3=
EXTT4=
EXTT5=
EXTT6=
EXTT7=
EXTT8=
EXTT9=
EXTT10=
EXTT11=
EXTT12=
EXTT13=
EXTT14=
PLAYORDER=
